<!--?xml version="1.0" encoding="utf-8"?-->
<!-- Generator: Adobe Illustrator 18.0.0, SVG Export Plug-In . SVG Version: 6.00 Build 0)  -->

<svg version="1.1" id="_x31_0" xmlns="http://www.w3.org/2000/svg" xmlns:xlink="http://www.w3.org/1999/xlink" x="0px" y="0px" viewBox="0 0 512 512" style="width: 64px; height: 64px; opacity: 1;" xml:space="preserve">
<style type="text/css">
	.st0{fill:#374149;}
</style>
<g>
	<path class="st0" d="M256,0C114.614,0,0,114.614,0,256s114.614,256,256,256c141.383,0,256-114.614,256-256S397.383,0,256,0z
		 M256,448c-105.871,0-192-86.133-192-192S150.129,64,256,64c105.867,0,192,86.133,192,192S361.867,448,256,448z" style="fill: rgb(149, 52, 64);"></path>
	<path class="st0" d="M331.809,176.77c-19.387-40.738-63.282-58.91-105.797-43.797c-1.176,0.418-2.332,0.898-3.465,1.434
		c-31.118,14.812-49.07,43.93-49.07,75.809c0,2.37,10.976,4.297,24.523,4.297c13.539,0,24.519-1.926,24.519-4.297h-0.14
		c0-8.981,3.496-17.422,9.847-23.774c6.348-6.352,14.793-9.848,23.774-9.848c8.981,0,17.422,3.496,23.774,9.848
		c6.347,6.351,9.847,14.793,9.847,23.774c0,15.406-10.293,29.23-27.625,33.621c-16.816,0-30.449,13.629-30.449,30.446v42.906h48.902
		v-23.87c0-2.481,1.554-4.696,3.886-5.547c11.152-4.07,21.375-10.558,30.015-19.203c22.547-22.547,30.442-55.844,18.895-88.336
		C332.824,179.054,332.348,177.898,331.809,176.77z" style="fill: rgb(149, 52, 64);"></path>
	<polygon class="st0" points="234.481,384.309 277.516,384.309 280.45,337.84 231.547,337.84 	" style="fill: rgb(149, 52, 64);"></polygon>
</g>
</svg>
